<?xml version="1.0" encoding="UTF-8" standalone="no"?>
<!DOCTYPE svg PUBLIC "-//W3C//DTD SVG 20010904//EN"
              "http://www.w3.org/TR/2001/REC-SVG-20010904/DTD/svg10.dtd">

<svg xmlns="http://www.w3.org/2000/svg"
     width="2.05556in" height="2.05556in"
     viewBox="0 0 148 148">
  <path id="Sélection"
        fill="#ff9933"
        d="M 64.00,55.00
           C 57.16,51.76 57.51,49.48 53.27,44.37
             51.29,41.99 49.36,41.22 48.43,37.96
             46.97,32.83 49.31,29.57 50.68,25.00
             51.71,21.54 51.78,18.45 53.41,15.01
             57.24,6.96 65.34,3.03 74.00,3.03
             82.66,3.03 90.76,6.96 94.59,15.01
             96.22,18.45 96.29,21.54 97.32,25.00
             98.69,29.57 101.03,32.83 99.57,37.96
             98.64,41.22 96.71,41.99 94.73,44.37
             90.49,49.48 90.84,51.76 84.00,55.00
             89.50,64.09 92.32,59.41 99.96,61.74
             99.96,61.74 105.74,65.52 105.74,65.52
             108.38,66.04 112.08,62.21 114.26,63.22
             117.50,64.67 115.95,72.99 116.00,76.00
             115.18,87.36 119.73,80.36 124.83,88.22
             126.42,90.87 126.04,97.76 126.00,101.00
             125.95,104.13 126.04,106.99 123.57,109.31
             121.64,111.12 118.63,111.54 117.02,114.22
             115.10,117.42 117.06,121.35 114.40,124.37
             112.65,126.35 101.12,131.68 98.00,133.25
             93.18,135.67 78.38,144.20 74.00,144.48
             69.83,144.74 65.53,141.77 62.00,139.88
             62.00,139.88 34.31,125.37 34.31,125.37
             30.78,121.99 32.96,118.63 30.98,115.19
             29.21,112.12 25.57,111.31 23.60,108.74
             21.48,105.97 20.74,92.47 22.18,89.27
             22.72,85.33 28.07,85.74 30.27,83.00
             32.05,80.79 31.07,77.68 31.09,75.00
             31.11,72.73 30.70,66.63 32.09,64.91
             34.20,62.30 38.73,65.39 42.00,64.71
             42.00,64.71 50.00,61.53 50.00,61.53
             57.56,59.71 58.92,63.40 64.00,55.00 Z
           M 194.90,32.83
           C 187.46,12.74 167.90,17.70 159.15,33.70
             167.09,32.82 162.06,31.44 162.36,31.36
             166.83,30.24 167.81,32.92 170.68,34.79
             171.99,35.64 173.68,36.33 176.27,36.41
             187.02,36.77 185.25,30.37 194.90,32.83 Z
           M 88.62,22.19
           C 74.71,28.74 72.13,26.89 58.69,22.38
             56.86,25.62 51.60,31.07 51.56,34.02
             51.51,37.57 55.09,40.23 57.05,43.04
             59.56,46.63 60.19,48.57 64.02,51.43
             70.27,56.11 79.28,56.06 85.25,50.89
             88.11,48.42 89.29,46.03 91.31,43.05
             93.30,40.12 96.92,37.88 96.75,33.98
             96.59,30.35 90.85,25.48 88.62,22.19 Z
           M 61.00,37.00
           C 63.17,33.76 64.28,34.13 68.00,34.00
             68.00,34.00 68.00,37.00 68.00,37.00
             68.00,37.00 61.00,37.00 61.00,37.00 Z
           M 80.00,34.00
           C 83.72,34.13 84.83,33.76 87.00,37.00
             87.00,37.00 80.00,37.00 80.00,37.00
             80.00,37.00 80.00,34.00 80.00,34.00 Z
           M 67.00,44.00
           C 67.00,44.00 74.00,45.09 74.00,45.09
             74.00,45.09 81.00,44.00 81.00,44.00
             77.52,50.33 70.48,50.33 67.00,44.00 Z
           M 68.04,58.69
           C 58.08,64.15 68.94,73.24 75.00,72.40
             80.25,71.68 87.74,64.22 81.76,59.61
             79.70,58.03 70.80,58.37 68.04,58.69 Z
           M 87.00,64.00
           C 86.09,66.66 85.73,67.73 83.78,69.91
             82.68,71.12 81.33,72.25 80.00,73.20
             69.27,80.85 64.10,68.76 60.37,65.59
             55.91,61.81 47.76,63.66 45.27,68.18
             45.27,68.18 64.00,77.92 64.00,77.92
             64.00,77.92 74.00,82.06 74.00,82.06
             74.00,82.06 83.00,78.30 83.00,78.30
             83.00,78.30 102.00,69.00 102.00,69.00
             102.00,69.00 102.00,67.00 102.00,67.00
             94.97,63.46 94.66,64.00 87.00,64.00 Z
           M 72.00,140.00
           C 72.00,140.00 72.00,93.00 72.00,93.00
             72.00,90.78 72.18,89.27 72.00,86.00
             70.36,85.18 63.73,80.79 61.00,79.36
             53.81,75.60 43.25,71.25 36.00,67.53
             36.00,67.53 36.06,80.94 36.06,80.94
             39.53,81.31 43.41,82.10 45.44,85.34
             47.29,88.30 44.10,90.11 44.34,93.28
             49.47,100.03 43.88,101.23 44.12,102.62
             48.22,110.64 45.19,113.28 34.63,113.77
             34.63,113.77 36.02,121.51 36.02,121.51
             36.02,121.51 46.00,127.49 46.00,127.49
             46.00,127.49 72.00,140.00 72.00,140.00 Z
           M 113.00,67.00
           C 113.00,67.00 87.00,79.70 87.00,79.70
             87.00,79.70 76.00,85.55 76.00,85.55
             76.00,85.55 76.00,93.00 76.00,93.00
             76.00,93.00 76.00,140.00 76.00,140.00
             76.00,140.00 99.00,129.10 99.00,129.10
             99.00,129.10 111.40,122.24 111.40,122.24
             111.40,122.24 113.00,115.00 113.00,115.00
             104.68,114.04 103.94,111.37 103.88,104.00
             103.88,104.00 103.88,99.00 103.88,99.00
             103.88,99.00 103.88,94.00 103.88,94.00
             104.14,90.76 102.59,88.23 104.75,85.23
             106.84,82.33 109.79,82.19 113.00,82.00
             113.00,82.00 113.00,67.00 113.00,67.00 Z
           M 31.22,95.87
           C 29.04,89.70 40.43,92.70 41.22,89.04
             42.26,84.74 36.00,85.62 34.00,85.68
             27.35,87.13 25.13,89.25 25.00,96.00
             24.93,100.22 24.50,104.99 28.43,107.70
             30.27,108.96 35.89,110.48 38.09,110.04
             40.03,109.66 41.91,108.58 40.83,106.49
             39.19,103.31 29.09,106.30 32.00,100.20
             32.00,100.20 37.94,100.20 37.94,100.20
             42.13,100.57 42.52,96.43 39.67,95.82
             38.04,95.39 32.78,96.26 31.22,95.87 Z
           M 116.50,100.56
           C 117.25,107.25 107.56,103.50 106.73,107.19
             105.88,111.38 111.91,110.77 114.00,110.32
             120.65,108.87 122.87,106.75 123.00,100.00
             123.07,95.79 123.83,90.85 119.85,88.22
             117.89,86.92 112.41,85.12 110.06,85.49
             108.05,85.80 106.08,87.41 107.17,89.59
             108.77,92.82 116.81,90.25 116.00,95.95
             113.94,95.94 109.75,95.73 107.00,96.12
             104.75,98.00 106.31,100.75 108.06,101.00
             111.50,101.00 113.56,100.81 116.50,100.56 Z" />
</svg>
